<svg id="Capa_1" enable-background="new 0 0 510 510" height="512" viewBox="0 0 510 510" width="512" xmlns="http://www.w3.org/2000/svg" xmlns:xlink="http://www.w3.org/1999/xlink"><linearGradient id="SVGID_1_" gradientUnits="userSpaceOnUse" x1=".238" x2="195.157" y1="92.5" y2="92.5"><stop offset="0" stop-color="#fbc56d"/><stop offset=".5841" stop-color="#fe9738"/><stop offset=".9984" stop-color="#fb2b3a"/></linearGradient><linearGradient id="lg1"><stop offset="0" stop-color="#fef056"/><stop offset=".5213" stop-color="#f4d902"/><stop offset="1" stop-color="#fe9738"/></linearGradient><linearGradient id="SVGID_2_" gradientUnits="userSpaceOnUse" x1="22.968" x2="162.033" xlink:href="#lg1" y1="92.5" y2="92.5"/><linearGradient id="SVGID_3_" gradientUnits="userSpaceOnUse" x1="15.291" x2="146.972" xlink:href="#lg1" y1="92.5" y2="92.5"/><linearGradient id="SVGID_4_" gradientUnits="userSpaceOnUse" x1="15.291" x2="146.972" xlink:href="#lg1" y1="90.978" y2="90.978"/><linearGradient id="SVGID_5_" gradientUnits="userSpaceOnUse" x1="15.291" x2="146.972" xlink:href="#lg1" y1="61.558" y2="61.558"/><linearGradient id="lg2"><stop offset="0" stop-color="#eaf6ff"/><stop offset=".5213" stop-color="#d8ecfe"/><stop offset="1" stop-color="#b3dafe"/></linearGradient><linearGradient id="SVGID_6_" gradientUnits="userSpaceOnUse" x1="386.944" x2="512.945" xlink:href="#lg2" y1="437.492" y2="437.492"/><linearGradient id="SVGID_7_" gradientUnits="userSpaceOnUse" x1="277" x2="517.408" xlink:href="#lg2" y1="437.492" y2="437.492"/><linearGradient id="SVGID_8_" gradientUnits="userSpaceOnUse" x1="296.699" x2="392.928" xlink:href="#lg1" y1="469.361" y2="469.361"/><linearGradient id="SVGID_9_" gradientUnits="userSpaceOnUse" x1="230.419" x2="401.452" xlink:href="#lg1" y1="469.361" y2="469.361"/><linearGradient id="lg3"><stop offset="0" stop-color="#60b7ff"/><stop offset=".5857" stop-color="#0182fc"/><stop offset="1" stop-color="#2740b0"/></linearGradient><linearGradient id="SVGID_10_" gradientUnits="userSpaceOnUse" x1="36.097" x2="473.903" xlink:href="#lg3" y1="259.709" y2="259.709"/><linearGradient id="SVGID_11_" gradientUnits="userSpaceOnUse" x1="-51" x2="357.256" xlink:href="#lg3" y1="255.116" y2="255.116"/><linearGradient id="SVGID_12_" gradientUnits="userSpaceOnUse" x1="-109.391" x2="418.719" xlink:href="#lg3" y1="255.379" y2="255.379"/><linearGradient id="lg4"><stop offset="0" stop-color="#814aa0"/><stop offset="1" stop-color="#192a7d"/></linearGradient><linearGradient id="SVGID_13_" gradientUnits="userSpaceOnUse" x1="116.616" x2="547.776" xlink:href="#lg4" y1="362.825" y2="362.825"/><linearGradient id="SVGID_14_" gradientUnits="userSpaceOnUse" x1="120" x2="360.3" xlink:href="#lg4" y1="411.759" y2="411.759"/><linearGradient id="SVGID_15_" gradientUnits="userSpaceOnUse" x1="18" x2="422.746" xlink:href="#lg4" y1="364.665" y2="364.665"/><linearGradient id="lg5"><stop offset="0" stop-color="#a2e62e"/><stop offset=".5857" stop-color="#81b823"/><stop offset="1" stop-color="#037e73"/></linearGradient><linearGradient id="SVGID_16_" gradientUnits="userSpaceOnUse" x1="42.106" x2="491.997" xlink:href="#lg5" y1="230.105" y2="230.105"/><linearGradient id="SVGID_17_" gradientUnits="userSpaceOnUse" x1="16" x2="388" xlink:href="#lg5" y1="230.105" y2="230.105"/><linearGradient id="SVGID_18_" gradientUnits="userSpaceOnUse" x1="42.106" x2="491.997" xlink:href="#lg5" y1="372.785" y2="372.785"/><linearGradient id="SVGID_19_" gradientUnits="userSpaceOnUse" x1="42.106" x2="491.997" xlink:href="#lg5" y1="274.321" y2="274.321"/><linearGradient id="SVGID_20_" gradientUnits="userSpaceOnUse" x1="-243" x2="353.272" xlink:href="#lg5" y1="394.785" y2="394.785"/><linearGradient id="SVGID_21_" gradientUnits="userSpaceOnUse" x1="-243" x2="353.272" xlink:href="#lg5" y1="437.417" y2="437.417"/><linearGradient id="SVGID_22_" gradientUnits="userSpaceOnUse" x1="-6" x2="435.5" xlink:href="#lg5" y1="330.203" y2="330.203"/><linearGradient id="SVGID_23_" gradientUnits="userSpaceOnUse" x1="109.041" x2="481.372" xlink:href="#lg2" y1="340.47" y2="340.47"/><linearGradient id="SVGID_24_" gradientUnits="userSpaceOnUse" x1="460.467" x2="510.264" xlink:href="#lg1" y1="338.97" y2="338.97"/><g><g><path d="m181.94 98.148-.028.018c-6.745 4.344-8.353 13.627-3.471 20.042l.005.006c2.957 3.887.917 9.573-3.812 10.623l-.009.002c-7.805 1.732-12.455 9.891-10.042 17.616l.009.028c1.461 4.675-2.371 9.303-7.163 8.652l-.015-.002c-7.924-1.076-15.045 4.989-15.371 13.091v.005c-.197 4.903-5.358 7.93-9.646 5.657l-.027-.014c-7.076-3.751-15.801-.531-18.845 6.956l-.012.029c-1.844 4.536-7.716 5.583-10.974 1.955-5.386-5.997-14.691-5.997-20.077 0-3.258 3.627-9.13 2.581-10.974-1.955l-.012-.029c-3.044-7.487-11.768-10.708-18.844-6.956l-.027.014c-4.288 2.273-9.449-.754-9.646-5.657v-.006c-.325-8.102-7.446-14.168-15.37-13.092l-.015.002c-4.793.651-8.624-3.977-7.163-8.652l.009-.028c2.414-7.725-2.237-15.884-10.042-17.616l-.009-.002c-4.729-1.05-6.769-6.736-3.812-10.623l.005-.006c4.881-6.416 3.273-15.698-3.471-20.042l-.031-.016c-4.08-2.628-4.08-8.668 0-11.296l.028-.018c6.745-4.344 8.353-13.627 3.471-20.042l-.005-.006c-2.957-3.887-.917-9.573 3.812-10.623l.009-.002c7.805-1.732 12.455-9.891 10.042-17.616l-.009-.028c-1.461-4.675 2.371-9.303 7.163-8.652l.015.002c7.924 1.076 15.045-4.989 15.371-13.091v-.005c.197-4.903 5.358-7.93 9.646-5.657l.027.014c7.076 3.751 15.801.531 18.845-6.956l.012-.029c1.844-4.536 7.716-5.583 10.974-1.955 5.386 5.997 14.691 5.997 20.077 0 3.258-3.627 9.13-2.581 10.974 1.955l.012.029c3.044 7.487 11.768 10.708 18.844 6.956l.027-.014c4.288-2.273 9.449.754 9.646 5.657v.006c.325 8.102 7.447 14.168 15.37 13.092l.015-.002c4.793-.651 8.624 3.977 7.163 8.652l-.009.028c-2.414 7.725 2.237 15.884 10.042 17.616l.009.002c4.729 1.05 6.769 6.736 3.812 10.623l-.005.006c-4.881 6.416-3.273 15.698 3.471 20.042l.028.018c4.083 2.626 4.083 8.666.003 11.294z" fill="url(#SVGID_1_)"/><g><circle cx="92.5" cy="92.5" fill="url(#SVGID_2_)" r="69.533"/><g><path d="m92.5 22.967c-4.26 0-8.423.404-12.471 1.137 32.447 5.879 57.061 34.253 57.061 68.395 0 11.119-2.624 21.619-7.266 30.936-2.352-10.591-12.102-18.399-23.552-17.706-11.127.673-20.284 9.611-21.199 20.72-.481 5.836 1.249 11.257 4.443 15.518 5.071 6.764 1.513 16.528-6.738 18.371-.91.203-1.827.389-2.75.556 4.048.734 8.212 1.137 12.471 1.137 38.401 0 69.532-31.131 69.532-69.533s-31.129-69.531-69.531-69.531z" fill="url(#SVGID_3_)"/><circle cx="57.341" cy="90.977" fill="url(#SVGID_4_)" r="14.71"/><circle cx="102.142" cy="61.558" fill="url(#SVGID_5_)" r="14.71"/></g></g></g><g><path d="m497.192 483.554c-26.521 0-47.807-22.415-45.948-49.333 1.594-23.075 20.549-41.612 43.652-42.734 1.85-.09 3.677-.07 5.475.052 9.615.656 13.327-12.289 4.957-17.066-11.414-6.515-24.771-10.017-38.988-9.423-37.268 1.559-67.599 31.749-69.317 69.01-1.919 41.605 31.245 75.94 72.429 75.94 13.089 0 25.365-3.469 35.963-9.537 8.345-4.778 4.499-17.657-5.095-17.014-1.034.07-2.077.105-3.128.105z" fill="url(#SVGID_6_)"/><path d="m500.319 483.449c-1.033.069-2.076.104-3.127.104-26.521 0-47.808-22.415-45.948-49.333 1.594-23.075 20.549-41.612 43.652-42.734 1.85-.09 3.677-.07 5.475.052 9.615.656 13.327-12.289 4.957-17.066-11.414-6.515-24.771-10.017-38.988-9.423-3.169.133-6.282.488-9.338 1.021 8.35 1.459 16.209 4.346 23.315 8.402 8.37 4.778 4.658 17.722-4.957 17.066-1.799-.123-3.625-.142-5.475-.052-23.103 1.122-42.058 19.658-43.652 42.734-1.859 26.919 19.427 49.333 45.948 49.333 1.051 0 2.094-.035 3.127-.104 9.595-.643 13.44 12.235 5.095 17.014-7.133 4.084-15.029 6.985-23.419 8.449 4.053.703 8.214 1.088 12.467 1.088 13.089 0 25.365-3.469 35.963-9.537 8.345-4.778 4.5-17.657-5.095-17.014z" fill="url(#SVGID_7_)"/></g><g><path d="m345.925 506.587c-7.592-12.862-18.333-23.639-31.166-31.274-4.514-2.685-4.514-9.221 0-11.906 12.833-7.634 23.574-18.412 31.166-31.274 2.686-4.55 9.257-4.55 11.942 0 7.592 12.862 18.333 23.639 31.166 31.274 4.514 2.685 4.514 9.221 0 11.906-12.833 7.635-23.574 18.412-31.166 31.274-2.686 4.551-9.257 4.551-11.942 0z" fill="url(#SVGID_8_)"/><path d="m389.033 463.408c-12.833-7.634-23.574-18.412-31.166-31.273-2.68-4.541-9.289-4.488-11.973.051-.043.072-.085.144-.128.216-3.696 6.21-2.666 14.182 2.581 19.15 4.757 4.504 10.011 8.487 15.675 11.856 4.534 2.697 4.534 9.209 0 11.907-5.664 3.369-10.919 7.352-15.675 11.856-5.247 4.968-6.276 12.94-2.581 19.15.043.072.086.144.128.216 2.684 4.539 9.292 4.592 11.973.051 7.592-12.862 18.333-23.639 31.166-31.274 4.545-2.704 4.545-9.203 0-11.906z" fill="url(#SVGID_9_)"/></g><g><path d="m473.903 255c0 120.897-98.006 218.903-218.903 218.903s-218.903-98.006-218.903-218.903c0-39.766 10.604-77.056 29.138-109.196 37.813-65.571 108.635-95.657 189.765-95.657 25.95 0 50.846-9.534 73.945-1.246 84.51 30.325 144.958 111.153 144.958 206.099z" fill="url(#SVGID_10_)"/><path d="m300.177 72.604c-22.033-7.454-45.638-11.496-70.188-11.496-54.059 0-103.539 19.598-141.728 52.074-19.829 23.291-34.867 50.783-43.584 80.962.58.581 1.184 1.143 1.842 1.662 5.495 4.339 12.794 5.646 19.453 3.484l59.553-19.336c7.211-2.341 15.127-.44 20.488 4.921l14.306 14.306c5.793 5.793 7.506 14.514 4.334 22.067-4.57 10.884 1.144 23.348 12.372 26.99l17.212 5.583c2.595.842 4.867 2.465 6.504 4.648 4.324 5.766 3.24 13.932-2.44 18.369l-6.959 5.437c-6.492 5.072-10.286 12.851-10.286 21.089v6.146c0 10.551 5.195 20.427 13.89 26.404l11.94 8.208c1.084.745 2.299 1.28 3.581 1.576l7.044 1.626c14.859 3.429 26.242 15.387 28.936 30.396 1.031 5.747.728 11.654-.886 17.266l-11.725 40.758c-1.927 6.7 3.101 13.379 10.073 13.379 2.639 0 5.182-.996 7.119-2.789l44.918-41.566c6.33-5.858 11.472-12.88 15.144-20.684l10.029-21.312c3.317-7.049 5.382-14.621 6.101-22.378l3.9-42.036c1.7-18.32-6.29-36.198-21.073-47.152-9.067-6.718-20.052-10.345-31.337-10.345h-8.036c-11.961 0-22.047-8.914-23.516-20.785-1.061-8.57 2.624-17.038 9.618-22.103l8.882-6.432c3.072-2.224 6.632-3.679 10.383-4.241l21.79-3.269c15.133-2.27 28.344-11.46 35.736-24.858 9.567-17.341 10.054-38.262 1.303-56.029-7.072-14.363-19.524-25.408-34.693-30.54z" fill="url(#SVGID_11_)"/><path d="m255 38.097c-6.576 0-13.08-1.693-19.509-1.125 111.756 9.872 199.394 103.708 199.394 218.028s-87.638 208.156-199.394 218.028c6.429.568 12.932.875 19.509.875 63.075 0 119.919-26.677 159.865-69.364 0 0 56.113-91.717 56.113-149.539 0-42.193-29.694-115.021-29.694-115.021-26.011-42.037-65.853-74.613-113.175-91.376-22.863-8.099-47.471-10.506-73.109-10.506z" fill="url(#SVGID_12_)"/><path d="m466.9 255c0 62.563-19.243 118.994-61.321 158.885-39.237 37.198-92.242 60.015-150.579 60.015-49.89 0-95.88-16.69-132.69-44.78 2.94-.06 5.93-.18 8.96-.34 18.17-.99 37.41-3.73 57.3-8.09 40.74-8.93 84.21-24.66 126.76-46.13 42.54-21.47 81.02-47.09 112.41-74.55 15.33-13.41 28.97-27.26 40.56-41.29 1.93-2.33 3.79-4.65 5.57-6.97.02 1.08-6.97 2.16-6.97 3.25z" fill="url(#SVGID_13_)"/><path d="m315.33 374.56c-24.181 12.201-48.658 22.543-72.763 30.842l-8.729 30.343c-1.927 6.7 3.101 13.379 10.073 13.379 2.639 0 5.182-.996 7.119-2.789l44.918-41.566c6.33-5.858 11.472-12.88 15.144-20.684l4.561-9.692c-.108.056-.215.112-.323.167z" fill="url(#SVGID_14_)"/><path d="m470.98 255.43c-.28 57.84-56.11 149.11-56.11 149.11-39.95 42.69-96.8 69.36-159.87 69.36-6.58 0-13.08-.3-19.51-.87 97.62-8.62 176.83-81.3 195.32-175.74 14.09-12.56 26.68-25.49 37.49-38.57.91-1.1 1.8-2.19 2.68-3.29z" fill="url(#SVGID_15_)"/><g><path d="m359.884 78.135c-7.075-14.365-19.527-25.41-34.696-30.542-22.033-7.454-45.638-11.496-70.188-11.496-80.245 0-150.404 43.179-188.514 107.57-5.345 9.031-3.192 20.625 5.045 27.128 5.495 4.339 12.794 5.646 19.453 3.484l59.553-19.336c7.211-2.341 15.127-.44 20.488 4.921l14.306 14.306c5.793 5.793 7.506 14.514 4.334 22.067-4.57 10.884 1.144 23.348 12.372 26.99l17.212 5.583c2.595.842 4.867 2.465 6.504 4.648 4.324 5.766 3.24 13.932-2.44 18.369l-6.959 5.437c-6.492 5.072-10.286 12.851-10.286 21.089v6.146c0 10.551 5.195 20.427 13.89 26.404l11.94 8.208c1.084.745 2.299 1.28 3.581 1.576l7.044 1.626c14.859 3.429 26.242 15.387 28.936 30.396 1.031 5.747.728 11.654-.886 17.265l-11.725 40.758c-1.927 6.7 3.101 13.379 10.073 13.379 2.639 0 5.182-.996 7.119-2.788l44.918-41.566c6.33-5.858 11.472-12.88 15.144-20.684l10.029-21.312c3.317-7.049 5.382-14.621 6.101-22.378l3.9-42.036c1.7-18.32-6.29-36.198-21.073-47.152-9.067-6.718-20.052-10.345-31.337-10.345h-8.036c-11.961 0-22.047-8.914-23.516-20.785-1.061-8.57 2.624-17.038 9.618-22.103l8.882-6.432c3.072-2.224 6.632-3.679 10.383-4.241l21.79-3.269c15.133-2.27 28.344-11.46 35.736-24.858 9.569-17.339 10.056-38.261 1.305-56.027z" fill="url(#SVGID_16_)"/><path d="m281.79 172.964 8.882-6.432c3.072-2.224 6.632-3.679 10.383-4.241l21.79-3.269c15.133-2.27 28.344-11.46 35.736-24.858 9.567-17.341 10.053-38.262 1.303-56.029-7.075-14.365-19.527-25.41-34.696-30.542-22.032-7.454-45.638-11.496-70.188-11.496-4.204 0-8.379.126-12.524.359 20.076 1.129 39.431 4.955 57.702 11.137 15.168 5.132 27.62 16.177 34.695 30.542 8.751 17.766 8.264 38.688-1.303 56.029-7.392 13.398-20.603 22.588-35.736 24.858l-21.79 3.269c-3.75.562-7.311 2.017-10.383 4.241l-8.882 6.432c-6.994 5.065-10.679 13.533-9.618 22.103 1.469 11.871 11.555 20.785 23.516 20.785h8.036c11.284 0 22.27 3.627 31.337 10.345 14.783 10.954 22.773 28.832 21.073 47.152l-3.9 42.036c-.72 7.757-2.784 15.329-6.101 22.378l-10.029 21.312c-3.672 7.804-8.814 14.826-15.144 20.684l-37.483 34.686c.404 5.253 4.788 9.669 10.457 9.669 2.639 0 5.182-.996 7.119-2.788l44.918-41.566c6.33-5.858 11.472-12.88 15.144-20.684l10.029-21.312c3.317-7.049 5.382-14.621 6.101-22.378l3.9-42.036c1.7-18.32-6.29-36.198-21.073-47.152-9.067-6.718-20.052-10.345-31.337-10.345h-8.036c-11.961 0-22.047-8.914-23.516-20.785-1.061-8.571 2.624-17.04 9.618-22.104z" fill="url(#SVGID_17_)"/><path d="m124.879 361.748c-14.886-7.391-26.604-19.907-32.999-35.248l-6.948-16.667c-2.84-6.813-9.176-11.529-16.516-12.294-14.567-1.52-25.839 12.511-21.229 26.413 17.765 53.567 55.662 97.951 104.726 124.193l3.173-31.784c2.268-22.715-9.761-44.462-30.207-54.613z" fill="url(#SVGID_18_)"/><path d="m441.273 139.986-1.371 2.57c-11.55 21.656-8.377 48.215 7.95 66.541 9.592 10.766 14.892 24.683 14.892 39.102 0 16.876-7.253 32.938-19.913 44.097l-17.123 15.093c-11.128 9.808-17.503 23.926-17.503 38.76v4.479c0 8.784-2.24 17.424-6.507 25.102l-7.627 13.722c-1.922 3.458-2.155 7.605-.633 11.257 3.621 8.686 14.987 10.693 21.418 3.822 36.621-39.13 59.048-91.707 59.048-149.53-.001-42.194-11.95-81.591-32.631-115.015z" fill="url(#SVGID_19_)"/></g></g><g><path d="m315.33 374.56c-17.545 8.853-35.245 16.712-52.847 23.539l-3.635 12.635c-1.927 6.7 3.101 13.379 10.073 13.379 2.64 0 5.182-.996 7.119-2.788l44.918-41.566c4.55-4.21 8.474-9.031 11.691-14.302-5.693 3.106-11.463 6.148-17.319 9.103z" fill="url(#SVGID_20_)"/><path d="m122.31 429.12c9.306 7.101 19.2 13.471 29.593 19.029.001-.001.009-.005.009-.005l2.143-21.461c-7.752.98-15.362 1.692-22.785 2.096-3.03.161-6.02.281-8.96.341z" fill="url(#SVGID_21_)"/></g><path d="m473.874 251.754c0-.002-.004-.002-.004-.004-1.78 2.32-3.64 4.64-5.57 6.97-3.094 3.745-6.344 7.475-9.723 11.19-3.381 8.503-8.729 16.2-15.747 22.387l-17.123 15.093c-11.128 9.808-17.503 23.926-17.503 38.76v4.479c0 8.784-2.24 17.424-6.507 25.102l-7.627 13.722c-1.922 3.458-2.155 7.605-.633 11.257 3.621 8.686 14.987 10.693 21.418 3.822 36.621-39.13 59.048-91.707 59.048-149.53 0-1.086-.013-2.168-.029-3.248z" fill="url(#SVGID_22_)"/><path d="m116.541 436.69c-4.142 0-7.5-3.358-7.5-7.5s3.358-7.5 7.5-7.5c1.979 0 3.804-.022 5.579-.067 2.722-.056 5.573-.164 8.756-.333 17.593-.958 36.468-3.625 56.09-7.926 40.27-8.827 83.489-24.561 124.987-45.5 41.491-20.94 79.822-46.356 110.851-73.5 15.128-13.232 28.49-26.833 39.716-40.421 1.975-2.384 3.739-4.592 5.402-6.759 2.521-3.286 7.228-3.907 10.517-1.384 3.286 2.521 3.905 7.23 1.384 10.516-1.778 2.316-3.657 4.668-5.745 7.188-11.732 14.203-25.662 28.387-41.397 42.151-31.961 27.959-71.37 54.102-113.969 75.601-42.606 21.499-87.052 37.668-128.533 46.761-20.408 4.473-40.089 7.25-58.498 8.252-3.358.178-6.368.292-9.215.35-1.868.048-3.818.071-5.925.071z" fill="url(#SVGID_23_)"/><path d="m485.94 358.234c-3.929-6.656-9.487-12.233-16.128-16.184-2.336-1.39-2.336-4.772 0-6.161 6.641-3.951 12.199-9.528 16.128-16.184 1.39-2.355 4.79-2.355 6.18 0 3.929 6.656 9.487 12.233 16.128 16.184 2.336 1.39 2.336 4.772 0 6.161-6.641 3.951-12.199 9.528-16.128 16.184-1.39 2.355-4.79 2.355-6.18 0z" fill="url(#SVGID_24_)"/></g></svg>
